<mxfile host="app.diagrams.net" modified="2020-05-18T07:50:07.221Z" agent="5.0 (Windows NT 10.0; Win64; x64) AppleWebKit/537.36 (KHTML, like Gecko) Chrome/81.0.4044.138 Safari/537.36" etag="aIxZJxN-TAxa3U_SrbXp" version="13.1.1" type="github">
  <diagram id="prtHgNgQTEPvFCAcTncT" name="Page-1">
    <mxGraphModel dx="1422" dy="755" grid="1" gridSize="10" guides="1" tooltips="1" connect="1" arrows="1" fold="1" page="1" pageScale="1" pageWidth="827" pageHeight="1169" math="0" shadow="0">
      <root>
        <mxCell id="0" />
        <mxCell id="1" parent="0" />
        <mxCell id="otR9TPUCRhcJya0NwbyP-5" value="Language Pack Pool" style="swimlane;html=1;childLayout=stackLayout;resizeParent=1;resizeParentMax=0;startSize=20;" parent="1" vertex="1">
          <mxGeometry x="40" y="40" width="900" height="710" as="geometry" />
        </mxCell>
        <mxCell id="otR9TPUCRhcJya0NwbyP-6" value="(NEW) Extract Pipeline" style="swimlane;html=1;startSize=20;" parent="otR9TPUCRhcJya0NwbyP-5" vertex="1">
          <mxGeometry y="20" width="300" height="690" as="geometry" />
        </mxCell>
        <mxCell id="otR9TPUCRhcJya0NwbyP-17" style="edgeStyle=orthogonalEdgeStyle;rounded=0;orthogonalLoop=1;jettySize=auto;html=1;" parent="otR9TPUCRhcJya0NwbyP-6" source="otR9TPUCRhcJya0NwbyP-26" target="otR9TPUCRhcJya0NwbyP-10" edge="1">
          <mxGeometry relative="1" as="geometry">
            <mxPoint x="140" y="70" as="sourcePoint" />
          </mxGeometry>
        </mxCell>
        <mxCell id="otR9TPUCRhcJya0NwbyP-18" style="edgeStyle=orthogonalEdgeStyle;rounded=0;orthogonalLoop=1;jettySize=auto;html=1;" parent="otR9TPUCRhcJya0NwbyP-6" source="otR9TPUCRhcJya0NwbyP-10" target="otR9TPUCRhcJya0NwbyP-11" edge="1">
          <mxGeometry relative="1" as="geometry" />
        </mxCell>
        <mxCell id="otR9TPUCRhcJya0NwbyP-10" value="Retrieve war file, based on release/ release tag" style="rounded=0;whiteSpace=wrap;html=1;" parent="otR9TPUCRhcJya0NwbyP-6" vertex="1">
          <mxGeometry x="80" y="120" width="120" height="60" as="geometry" />
        </mxCell>
        <mxCell id="otR9TPUCRhcJya0NwbyP-19" style="edgeStyle=orthogonalEdgeStyle;rounded=0;orthogonalLoop=1;jettySize=auto;html=1;" parent="otR9TPUCRhcJya0NwbyP-6" source="otR9TPUCRhcJya0NwbyP-11" target="otR9TPUCRhcJya0NwbyP-12" edge="1">
          <mxGeometry relative="1" as="geometry" />
        </mxCell>
        <mxCell id="otR9TPUCRhcJya0NwbyP-11" value="Extract language from war file" style="rounded=0;whiteSpace=wrap;html=1;" parent="otR9TPUCRhcJya0NwbyP-6" vertex="1">
          <mxGeometry x="80" y="210" width="120" height="60" as="geometry" />
        </mxCell>
        <mxCell id="otR9TPUCRhcJya0NwbyP-20" style="edgeStyle=orthogonalEdgeStyle;rounded=0;orthogonalLoop=1;jettySize=auto;html=1;" parent="otR9TPUCRhcJya0NwbyP-6" source="otR9TPUCRhcJya0NwbyP-12" target="otR9TPUCRhcJya0NwbyP-13" edge="1">
          <mxGeometry relative="1" as="geometry" />
        </mxCell>
        <mxCell id="otR9TPUCRhcJya0NwbyP-12" value="Put into artifactory" style="rounded=0;whiteSpace=wrap;html=1;" parent="otR9TPUCRhcJya0NwbyP-6" vertex="1">
          <mxGeometry x="80" y="300" width="120" height="60" as="geometry" />
        </mxCell>
        <mxCell id="otR9TPUCRhcJya0NwbyP-13" value="Print artifactory url" style="rounded=0;whiteSpace=wrap;html=1;" parent="otR9TPUCRhcJya0NwbyP-6" vertex="1">
          <mxGeometry x="80" y="390" width="120" height="60" as="geometry" />
        </mxCell>
        <mxCell id="otR9TPUCRhcJya0NwbyP-26" value="S" style="ellipse;whiteSpace=wrap;html=1;aspect=fixed;rounded=1;" parent="otR9TPUCRhcJya0NwbyP-6" vertex="1">
          <mxGeometry x="120" y="40" width="40" height="40" as="geometry" />
        </mxCell>
        <mxCell id="otR9TPUCRhcJya0NwbyP-7" value="(MANUAL) Translate and store" style="swimlane;html=1;startSize=20;verticalAlign=middle;horizontal=1;" parent="otR9TPUCRhcJya0NwbyP-5" vertex="1">
          <mxGeometry x="300" y="20" width="300" height="690" as="geometry" />
        </mxCell>
        <mxCell id="otR9TPUCRhcJya0NwbyP-44" style="edgeStyle=orthogonalEdgeStyle;rounded=0;orthogonalLoop=1;jettySize=auto;html=1;" parent="otR9TPUCRhcJya0NwbyP-7" source="otR9TPUCRhcJya0NwbyP-38" target="otR9TPUCRhcJya0NwbyP-41" edge="1">
          <mxGeometry relative="1" as="geometry" />
        </mxCell>
        <mxCell id="otR9TPUCRhcJya0NwbyP-38" value="&lt;span&gt;Retrieve file for translator&lt;/span&gt;" style="verticalLabelPosition=middle;verticalAlign=middle;html=1;shape=trapezoid;perimeter=trapezoidPerimeter;whiteSpace=wrap;size=0.23;arcSize=20;flipV=1;rounded=1;labelPosition=center;align=center;" parent="otR9TPUCRhcJya0NwbyP-7" vertex="1">
          <mxGeometry x="73" y="120" width="126" height="80" as="geometry" />
        </mxCell>
        <mxCell id="otR9TPUCRhcJya0NwbyP-45" style="edgeStyle=orthogonalEdgeStyle;rounded=0;orthogonalLoop=1;jettySize=auto;html=1;" parent="otR9TPUCRhcJya0NwbyP-7" source="otR9TPUCRhcJya0NwbyP-41" target="otR9TPUCRhcJya0NwbyP-43" edge="1">
          <mxGeometry relative="1" as="geometry" />
        </mxCell>
        <mxCell id="otR9TPUCRhcJya0NwbyP-41" value="&lt;span&gt;Translate&lt;/span&gt;" style="verticalLabelPosition=middle;verticalAlign=middle;html=1;shape=trapezoid;perimeter=trapezoidPerimeter;whiteSpace=wrap;size=0.23;arcSize=20;flipV=1;rounded=1;labelPosition=center;align=center;" parent="otR9TPUCRhcJya0NwbyP-7" vertex="1">
          <mxGeometry x="73" y="240" width="126" height="80" as="geometry" />
        </mxCell>
        <mxCell id="otR9TPUCRhcJya0NwbyP-43" value="&lt;span&gt;Store translated file&lt;br&gt;at powercurve repository&lt;/span&gt;" style="verticalLabelPosition=middle;verticalAlign=middle;html=1;shape=trapezoid;perimeter=trapezoidPerimeter;whiteSpace=wrap;size=0.23;arcSize=20;flipV=1;rounded=1;labelPosition=center;align=center;" parent="otR9TPUCRhcJya0NwbyP-7" vertex="1">
          <mxGeometry x="71" y="360" width="130" height="90" as="geometry" />
        </mxCell>
        <mxCell id="otR9TPUCRhcJya0NwbyP-8" value="(NEW) Translated PC Release Pipeline" style="swimlane;html=1;startSize=20;" parent="otR9TPUCRhcJya0NwbyP-5" vertex="1">
          <mxGeometry x="600" y="20" width="300" height="690" as="geometry" />
        </mxCell>
        <mxCell id="otR9TPUCRhcJya0NwbyP-55" style="edgeStyle=orthogonalEdgeStyle;rounded=0;orthogonalLoop=1;jettySize=auto;html=1;" parent="otR9TPUCRhcJya0NwbyP-8" source="otR9TPUCRhcJya0NwbyP-35" target="otR9TPUCRhcJya0NwbyP-50" edge="1">
          <mxGeometry relative="1" as="geometry" />
        </mxCell>
        <mxCell id="otR9TPUCRhcJya0NwbyP-54" style="edgeStyle=orthogonalEdgeStyle;rounded=0;orthogonalLoop=1;jettySize=auto;html=1;entryX=0.5;entryY=0;entryDx=0;entryDy=0;" parent="otR9TPUCRhcJya0NwbyP-8" source="otR9TPUCRhcJya0NwbyP-34" target="otR9TPUCRhcJya0NwbyP-59" edge="1">
          <mxGeometry relative="1" as="geometry" />
        </mxCell>
        <mxCell id="otR9TPUCRhcJya0NwbyP-58" style="edgeStyle=orthogonalEdgeStyle;rounded=0;orthogonalLoop=1;jettySize=auto;html=1;entryX=0.5;entryY=0;entryDx=0;entryDy=0;" parent="otR9TPUCRhcJya0NwbyP-8" source="otR9TPUCRhcJya0NwbyP-50" target="otR9TPUCRhcJya0NwbyP-61" edge="1">
          <mxGeometry relative="1" as="geometry" />
        </mxCell>
        <mxCell id="otR9TPUCRhcJya0NwbyP-60" style="edgeStyle=orthogonalEdgeStyle;rounded=0;orthogonalLoop=1;jettySize=auto;html=1;" parent="otR9TPUCRhcJya0NwbyP-8" source="otR9TPUCRhcJya0NwbyP-59" target="otR9TPUCRhcJya0NwbyP-35" edge="1">
          <mxGeometry relative="1" as="geometry" />
        </mxCell>
        <mxCell id="otR9TPUCRhcJya0NwbyP-75" style="edgeStyle=orthogonalEdgeStyle;rounded=0;orthogonalLoop=1;jettySize=auto;html=1;entryX=0.5;entryY=0;entryDx=0;entryDy=0;entryPerimeter=0;" parent="otR9TPUCRhcJya0NwbyP-8" source="otR9TPUCRhcJya0NwbyP-66" target="otR9TPUCRhcJya0NwbyP-57" edge="1">
          <mxGeometry relative="1" as="geometry" />
        </mxCell>
        <mxCell id="otR9TPUCRhcJya0NwbyP-34" value="Get translated file from repository" style="rounded=0;whiteSpace=wrap;html=1;" parent="otR9TPUCRhcJya0NwbyP-8" vertex="1">
          <mxGeometry x="80" y="60" width="120" height="60" as="geometry" />
        </mxCell>
        <mxCell id="otR9TPUCRhcJya0NwbyP-59" value="Retrieve the release artifacts" style="rounded=0;whiteSpace=wrap;html=1;" parent="otR9TPUCRhcJya0NwbyP-8" vertex="1">
          <mxGeometry x="80" y="150" width="120" height="60" as="geometry" />
        </mxCell>
        <mxCell id="otR9TPUCRhcJya0NwbyP-35" value="Inject translated file to webengine war file" style="rounded=0;whiteSpace=wrap;html=1;" parent="otR9TPUCRhcJya0NwbyP-8" vertex="1">
          <mxGeometry x="80" y="240" width="120" height="60" as="geometry" />
        </mxCell>
        <mxCell id="otR9TPUCRhcJya0NwbyP-50" value="Upload translated war with the new translate version" style="rounded=0;whiteSpace=wrap;html=1;" parent="otR9TPUCRhcJya0NwbyP-8" vertex="1">
          <mxGeometry x="80" y="330" width="120" height="60" as="geometry" />
        </mxCell>
        <mxCell id="otR9TPUCRhcJya0NwbyP-71" value="" style="edgeStyle=orthogonalEdgeStyle;rounded=0;orthogonalLoop=1;jettySize=auto;html=1;" parent="otR9TPUCRhcJya0NwbyP-8" source="otR9TPUCRhcJya0NwbyP-61" target="otR9TPUCRhcJya0NwbyP-66" edge="1">
          <mxGeometry relative="1" as="geometry" />
        </mxCell>
        <mxCell id="otR9TPUCRhcJya0NwbyP-57" value="END" style="strokeWidth=2;html=1;shape=mxgraph.flowchart.terminator;whiteSpace=wrap;rounded=1;" parent="otR9TPUCRhcJya0NwbyP-8" vertex="1">
          <mxGeometry x="100" y="606" width="80" height="35" as="geometry" />
        </mxCell>
        <mxCell id="otR9TPUCRhcJya0NwbyP-61" value="Upload translated war with the new translate version" style="rounded=0;whiteSpace=wrap;html=1;" parent="otR9TPUCRhcJya0NwbyP-8" vertex="1">
          <mxGeometry x="75" y="420" width="130" height="67" as="geometry" />
        </mxCell>
        <mxCell id="otR9TPUCRhcJya0NwbyP-66" value="Create release with the translated war" style="rounded=0;whiteSpace=wrap;html=1;" parent="otR9TPUCRhcJya0NwbyP-8" vertex="1">
          <mxGeometry x="70.5" y="514" width="139" height="67" as="geometry" />
        </mxCell>
        <mxCell id="BngQ0miL3F9dzHmZawwD-1" value="Text" style="text;html=1;align=center;verticalAlign=middle;resizable=0;points=[];autosize=1;" vertex="1" parent="otR9TPUCRhcJya0NwbyP-66">
          <mxGeometry x="99" y="42" width="40" height="20" as="geometry" />
        </mxCell>
        <mxCell id="otR9TPUCRhcJya0NwbyP-21" style="edgeStyle=orthogonalEdgeStyle;rounded=0;orthogonalLoop=1;jettySize=auto;html=1;entryX=0.5;entryY=0;entryDx=0;entryDy=0;" parent="otR9TPUCRhcJya0NwbyP-5" source="otR9TPUCRhcJya0NwbyP-13" target="otR9TPUCRhcJya0NwbyP-38" edge="1">
          <mxGeometry relative="1" as="geometry">
            <mxPoint x="140" y="520" as="targetPoint" />
          </mxGeometry>
        </mxCell>
        <mxCell id="otR9TPUCRhcJya0NwbyP-56" style="edgeStyle=orthogonalEdgeStyle;rounded=0;orthogonalLoop=1;jettySize=auto;html=1;entryX=0.5;entryY=0;entryDx=0;entryDy=0;" parent="otR9TPUCRhcJya0NwbyP-5" source="otR9TPUCRhcJya0NwbyP-43" target="otR9TPUCRhcJya0NwbyP-34" edge="1">
          <mxGeometry relative="1" as="geometry">
            <mxPoint x="640" y="110" as="targetPoint" />
          </mxGeometry>
        </mxCell>
      </root>
    </mxGraphModel>
  </diagram>
</mxfile>
